<svg xmlns="http://www.w3.org/2000/svg" viewBox="0 0 100 100" width="100%" height="100%">
  <!-- Transparent Background -->
  <rect width="100" height="100" fill="none" />
  <g>
    <circle cx="50.000" cy="50.000" r="1.20" fill="hsl(0, 85%, 55%)" />
    <circle cx="48.415" cy="51.453" r="1.24" fill="hsl(137, 85%, 55%)" />
    <circle cx="50.265" cy="46.971" r="1.26" fill="hsl(275, 85%, 55%)" />
    <circle cx="52.267" cy="52.954" r="1.28" fill="hsl(52, 85%, 55%)" />
    <circle cx="45.765" cy="49.253" r="1.29" fill="hsl(190, 85%, 55%)" />
    <circle cx="54.055" cy="47.417" r="1.30" fill="hsl(327, 85%, 55%)" />
    <circle cx="48.637" cy="55.087" r="1.31" fill="hsl(105, 85%, 55%)" />
    <circle cx="47.373" cy="44.954" r="1.32" fill="hsl(242, 85%, 55%)" />
    <circle cx="55.714" cy="52.080" r="1.33" fill="hsl(20, 85%, 55%)" />
    <circle cx="44.041" cy="52.468" r="1.33" fill="hsl(157, 85%, 55%)" />
    <circle cx="52.873" cy="43.838" r="1.34" fill="hsl(295, 85%, 55%)" />
    <circle cx="52.144" cy="56.801" r="1.35" fill="hsl(72, 85%, 55%)" />
    <circle cx="43.550" cy="46.276" r="1.36" fill="hsl(210, 85%, 55%)" />
    <circle cx="57.568" cy="48.322" r="1.36" fill="hsl(347, 85%, 55%)" />
    <circle cx="45.386" cy="56.590" r="1.37" fill="hsl(125, 85%, 55%)" />
    <circle cx="48.913" cy="41.744" r="1.37" fill="hsl(262, 85%, 55%)" />
    <circle cx="56.588" cy="55.528" r="1.38" fill="hsl(40, 85%, 55%)" />
    <circle cx="41.144" cy="50.387" r="1.39" fill="hsl(177, 85%, 55%)" />
    <circle cx="56.450" cy="43.550" r="1.39" fill="hsl(315, 85%, 55%)" />
    <circle cx="49.591" cy="59.363" r="1.40" fill="hsl(92, 85%, 55%)" />
    <circle cx="43.820" cy="42.634" r="1.40" fill="hsl(230, 85%, 55%)" />
    <circle cx="59.768" cy="51.286" r="1.41" fill="hsl(7, 85%, 55%)" />
    <circle cx="41.739" cy="55.784" r="1.41" fill="hsl(145, 85%, 55%)" />
    <circle cx="52.232" cy="39.933" r="1.42" fill="hsl(282, 85%, 55%)" />
    <circle cx="55.266" cy="59.122" r="1.42" fill="hsl(60, 85%, 55%)" />
    <circle cx="39.748" cy="46.767" r="1.43" fill="hsl(197, 85%, 55%)" />
    <circle cx="59.936" cy="45.367" r="1.43" fill="hsl(335, 85%, 55%)" />
    <circle cx="45.725" cy="60.321" r="1.43" fill="hsl(112, 85%, 55%)" />
    <circle cx="46.109" cy="39.309" r="1.44" fill="hsl(250, 85%, 55%)" />
    <circle cx="60.270" cy="55.346" r="1.44" fill="hsl(27, 85%, 55%)" />
    <circle cx="38.625" cy="53.048" r="1.45" fill="hsl(165, 85%, 55%)" />
    <circle cx="56.432" cy="39.904" r="1.45" fill="hsl(302, 85%, 55%)" />
    <circle cx="52.112" cy="61.977" r="1.45" fill="hsl(80, 85%, 55%)" />
    <circle cx="40.201" cy="42.481" r="1.46" fill="hsl(217, 85%, 55%)" />
    <circle cx="62.489" cy="48.907" r="1.46" fill="hsl(355, 85%, 55%)" />
    <circle cx="41.407" cy="59.378" r="1.47" fill="hsl(132, 85%, 55%)" />
    <circle cx="50.000" cy="37.100" r="1.47" fill="hsl(270, 85%, 55%)" />
    <circle cx="58.835" cy="59.642" r="1.47" fill="hsl(47, 85%, 55%)" />
    <circle cx="36.797" cy="48.845" r="1.48" fill="hsl(185, 85%, 55%)" />
    <circle cx="60.652" cy="41.826" r="1.48" fill="hsl(322, 85%, 55%)" />
    <circle cx="47.639" cy="63.391" r="1.48" fill="hsl(100, 85%, 55%)" />
    <circle cx="42.603" cy="38.389" r="1.49" fill="hsl(237, 85%, 55%)" />
    <circle cx="63.459" cy="53.606" r="1.49" fill="hsl(15, 85%, 55%)" />
    <circle cx="37.494" cy="56.510" r="1.50" fill="hsl(152, 85%, 55%)" />
    <circle cx="54.878" cy="36.599" r="1.50" fill="hsl(290, 85%, 55%)" />
    <circle cx="55.519" cy="63.325" r="1.50" fill="hsl(67, 85%, 55%)" />
    <circle cx="36.784" cy="43.837" r="1.51" fill="hsl(205, 85%, 55%)" />
    <circle cx="64.057" cy="45.568" r="1.51" fill="hsl(342, 85%, 55%)" />
    <circle cx="42.552" cy="62.900" r="1.51" fill="hsl(120, 85%, 55%)" />
    <circle cx="46.743" cy="35.307" r="1.51" fill="hsl(257, 85%, 55%)" />
    <circle cx="62.453" cy="58.720" r="1.52" fill="hsl(35, 85%, 55%)" />
    <circle cx="34.777" cy="52.004" r="1.52" fill="hsl(172, 85%, 55%)" />
    <circle cx="59.966" cy="38.123" r="1.52" fill="hsl(310, 85%, 55%)" />
    <circle cx="50.683" cy="65.637" r="1.53" fill="hsl(87, 85%, 55%)" />
    <circle cx="38.828" cy="38.828" r="1.53" fill="hsl(225, 85%, 55%)" />
    <circle cx="65.930" cy="50.696" r="1.53" fill="hsl(2, 85%, 55%)" />
    <circle cx="37.675" cy="60.342" r="1.54" fill="hsl(140, 85%, 55%)" />
    <circle cx="52.119" cy="33.907" r="1.54" fill="hsl(277, 85%, 55%)" />
    <circle cx="59.392" cy="63.413" r="1.54" fill="hsl(55, 85%, 55%)" />
    <circle cx="33.877" cy="46.426" r="1.55" fill="hsl(192, 85%, 55%)" />
    <circle cx="64.423" cy="41.673" r="1.55" fill="hsl(330, 85%, 55%)" />
    <circle cx="44.951" cy="66.015" r="1.55" fill="hsl(107, 85%, 55%)" />
    <circle cx="42.845" cy="34.657" r="1.55" fill="hsl(245, 85%, 55%)" />
    <circle cx="65.766" cy="56.531" r="1.56" fill="hsl(22, 85%, 55%)" />
    <circle cx="33.837" cy="55.883" r="1.56" fill="hsl(160, 85%, 55%)" />
    <circle cx="58.004" cy="34.625" r="1.56" fill="hsl(297, 85%, 55%)" />
    <circle cx="54.521" cy="66.872" r="1.57" fill="hsl(75, 85%, 55%)" />
    <circle cx="35.158" cy="40.544" r="1.57" fill="hsl(212, 85%, 55%)" />
    <circle cx="67.460" cy="46.921" r="1.57" fill="hsl(350, 85%, 55%)" />
    <circle cx="39.128" cy="64.169" r="1.57" fill="hsl(127, 85%, 55%)" />
    <circle cx="48.432" cy="32.080" r="1.58" fill="hsl(265, 85%, 55%)" />
    <circle cx="63.357" cy="62.239" r="1.58" fill="hsl(42, 85%, 55%)" />
    <circle cx="31.757" cy="50.000" r="1.58" fill="hsl(180, 85%, 55%)" />
    <circle cx="63.543" cy="37.590" r="1.58" fill="hsl(317, 85%, 55%)" />
    <circle cx="48.388" cy="68.425" r="1.59" fill="hsl(95, 85%, 55%)" />
    <circle cx="38.665" cy="35.228" r="1.59" fill="hsl(232, 85%, 55%)" />
    <circle cx="68.459" cy="53.255" r="1.59" fill="hsl(10, 85%, 55%)" />
    <circle cx="34.088" cy="60.137" r="1.59" fill="hsl(147, 85%, 55%)" />
    <circle cx="54.915" cy="31.659" r="1.60" fill="hsl(285, 85%, 55%)" />
    <circle cx="58.824" cy="66.950" r="1.60" fill="hsl(62, 85%, 55%)" />
    <circle cx="31.930" cy="43.423" r="1.60" fill="hsl(200, 85%, 55%)" />
    <circle cx="67.877" cy="42.595" r="1.60" fill="hsl(337, 85%, 55%)" />
    <circle cx="41.772" cy="67.645" r="1.61" fill="hsl(115, 85%, 55%)" />
    <circle cx="44.110" cy="31.319" r="1.61" fill="hsl(252, 85%, 55%)" />
    <circle cx="67.065" cy="59.853" r="1.61" fill="hsl(30, 85%, 55%)" />
    <circle cx="30.648" cy="54.290" r="1.61" fill="hsl(167, 85%, 55%)" />
    <circle cx="61.436" cy="33.668" r="1.62" fill="hsl(305, 85%, 55%)" />
    <circle cx="52.618" cy="69.882" r="1.62" fill="hsl(82, 85%, 55%)" />
    <circle cx="34.550" cy="37.036" r="1.62" fill="hsl(220, 85%, 55%)" />
    <circle cx="70.264" cy="49.115" r="1.62" fill="hsl(357, 85%, 55%)" />
    <circle cx="35.577" cy="64.423" r="1.63" fill="hsl(135, 85%, 55%)" />
    <circle cx="50.895" cy="29.510" r="1.63" fill="hsl(272, 85%, 55%)" />
    <circle cx="63.256" cy="65.797" r="1.63" fill="hsl(50, 85%, 55%)" />
    <circle cx="29.444" cy="47.294" r="1.63" fill="hsl(187, 85%, 55%)" />
    <circle cx="67.075" cy="38.044" r="1.64" fill="hsl(325, 85%, 55%)" />
    <circle cx="45.464" cy="70.459" r="1.64" fill="hsl(102, 85%, 55%)" />
    <circle cx="39.467" cy="31.757" r="1.64" fill="hsl(240, 85%, 55%)" />
    <circle cx="70.195" cy="56.367" r="1.64" fill="hsl(17, 85%, 55%)" />
    <circle cx="30.710" cy="58.995" r="1.65" fill="hsl(155, 85%, 55%)" />
    <circle cx="58.186" cy="30.236" r="1.65" fill="hsl(292, 85%, 55%)" />
    <circle cx="57.353" cy="70.203" r="1.65" fill="hsl(70, 85%, 55%)" />
    <circle cx="30.834" cy="40.023" r="1.65" fill="hsl(207, 85%, 55%)" />
    <circle cx="70.974" cy="44.380" r="1.65" fill="hsl(345, 85%, 55%)" />
    <circle cx="38.276" cy="68.403" r="1.66" fill="hsl(122, 85%, 55%)" />
    <circle cx="46.193" cy="28.407" r="1.66" fill="hsl(260, 85%, 55%)" />
    <circle cx="67.478" cy="63.412" r="1.66" fill="hsl(37, 85%, 55%)" />
    <circle cx="27.949" cy="51.929" r="1.66" fill="hsl(175, 85%, 55%)" />
    <circle cx="65.025" cy="33.603" r="1.67" fill="hsl(312, 85%, 55%)" />
    <circle cx="50.000" cy="72.343" r="1.67" fill="hsl(90, 85%, 55%)" />
    <circle cx="34.835" cy="33.451" r="1.67" fill="hsl(227, 85%, 55%)" />
    <circle cx="72.464" cy="51.965" r="1.67" fill="hsl(5, 85%, 55%)" />
    <circle cx="32.029" cy="63.789" r="1.67" fill="hsl(142, 85%, 55%)" />
    <circle cx="53.951" cy="27.592" r="1.68" fill="hsl(280, 85%, 55%)" />
    <circle cx="62.280" cy="69.276" r="1.68" fill="hsl(57, 85%, 55%)" />
    <circle cx="27.826" cy="44.059" r="1.68" fill="hsl(195, 85%, 55%)" />
    <circle cx="70.451" cy="39.354" r="1.68" fill="hsl(332, 85%, 55%)" />
    <circle cx="42.080" cy="71.760" r="1.68" fill="hsl(110, 85%, 55%)" />
    <circle cx="41.100" cy="28.514" r="1.69" fill="hsl(247, 85%, 55%)" />
    <circle cx="71.167" cy="59.870" r="1.69" fill="hsl(25, 85%, 55%)" />
    <circle cx="27.632" cy="57.053" r="1.69" fill="hsl(162, 85%, 55%)" />
    <circle cx="61.776" cy="29.603" r="1.69" fill="hsl(300, 85%, 55%)" />
    <circle cx="55.119" cy="73.089" r="1.70" fill="hsl(77, 85%, 55%)" />
    <circle cx="30.547" cy="36.379" r="1.70" fill="hsl(215, 85%, 55%)" />
    <circle cx="73.641" cy="46.888" r="1.70" fill="hsl(352, 85%, 55%)" />
    <circle cx="34.611" cy="68.340" r="1.70" fill="hsl(130, 85%, 55%)" />
    <circle cx="48.951" cy="25.985" r="1.70" fill="hsl(267, 85%, 55%)" />
    <circle cx="67.065" cy="67.065" r="1.71" fill="hsl(45, 85%, 55%)" />
    <circle cx="25.794" cy="48.943" r="1.71" fill="hsl(182, 85%, 55%)" />
    <circle cx="68.634" cy="34.365" r="1.71" fill="hsl(320, 85%, 55%)" />
    <circle cx="46.813" cy="74.210" r="1.71" fill="hsl(97, 85%, 55%)" />
    <circle cx="35.939" cy="29.919" r="1.71" fill="hsl(235, 85%, 55%)" />
    <circle cx="74.025" cy="55.326" r="1.72" fill="hsl(12, 85%, 55%)" />
    <circle cx="28.608" cy="62.351" r="1.72" fill="hsl(150, 85%, 55%)" />
    <circle cx="57.456" cy="26.353" r="1.72" fill="hsl(287, 85%, 55%)" />
    <circle cx="60.518" cy="72.556" r="1.72" fill="hsl(65, 85%, 55%)" />
    <circle cx="26.921" cy="40.440" r="1.72" fill="hsl(202, 85%, 55%)" />
    <circle cx="73.561" cy="41.424" r="1.72" fill="hsl(340, 85%, 55%)" />
    <circle cx="38.380" cy="72.322" r="1.73" fill="hsl(117, 85%, 55%)" />
    <circle cx="43.463" cy="25.604" r="1.73" fill="hsl(255, 85%, 55%)" />
    <circle cx="71.378" cy="63.620" r="1.73" fill="hsl(32, 85%, 55%)" />
    <circle cx="24.947" cy="54.417" r="1.73" fill="hsl(170, 85%, 55%)" />
    <circle cx="65.542" cy="29.746" r="1.73" fill="hsl(307, 85%, 55%)" />
    <circle cx="52.233" cy="75.523" r="1.74" fill="hsl(85, 85%, 55%)" />
    <circle cx="31.044" cy="32.630" r="1.74" fill="hsl(222, 85%, 55%)" />
    <circle cx="75.800" cy="50.000" r="1.74" fill="hsl(0, 85%, 55%)" />
    <circle cx="30.912" cy="67.491" r="1.74" fill="hsl(137, 85%, 55%)" />
    <circle cx="52.264" cy="24.120" r="1.74" fill="hsl(275, 85%, 55%)" />
    <circle cx="65.869" cy="70.681" r="1.75" fill="hsl(52, 85%, 55%)" />
    <circle cx="24.241" cy="45.458" r="1.75" fill="hsl(190, 85%, 55%)" />
    <circle cx="72.134" cy="35.899" r="1.75" fill="hsl(327, 85%, 55%)" />
    <circle cx="43.185" cy="75.435" r="1.75" fill="hsl(105, 85%, 55%)" />
    <circle cx="37.801" cy="26.565" r="1.75" fill="hsl(242, 85%, 55%)" />
    <circle cx="74.908" cy="59.066" r="1.75" fill="hsl(20, 85%, 55%)" />
    <circle cx="25.430" cy="60.177" r="1.76" fill="hsl(157, 85%, 55%)" />
    <circle cx="61.276" cy="25.819" r="1.76" fill="hsl(295, 85%, 55%)" />
    <circle cx="58.049" cy="75.528" r="1.76" fill="hsl(72, 85%, 55%)" />
    <circle cx="26.744" cy="36.573" r="1.76" fill="hsl(210, 85%, 55%)" />
    <circle cx="76.301" cy="44.169" r="1.76" fill="hsl(347, 85%, 55%)" />
    <circle cx="34.499" cy="72.138" r="1.77" fill="hsl(125, 85%, 55%)" />
    <circle cx="46.461" cy="23.121" r="1.77" fill="hsl(262, 85%, 55%)" />
    <circle cx="70.833" cy="67.481" r="1.77" fill="hsl(40, 85%, 55%)" />
    <circle cx="22.746" cy="51.190" r="1.77" fill="hsl(177, 85%, 55%)" />
    <circle cx="69.350" cy="30.650" r="1.77" fill="hsl(315, 85%, 55%)" />
    <circle cx="48.803" cy="77.423" r="1.77" fill="hsl(92, 85%, 55%)" />
    <circle cx="32.302" cy="28.908" r="1.78" fill="hsl(230, 85%, 55%)" />
    <circle cx="77.381" cy="53.605" r="1.78" fill="hsl(7, 85%, 55%)" />
    <circle cx="27.309" cy="65.889" r="1.78" fill="hsl(145, 85%, 55%)" />
    <circle cx="56.014" cy="22.874" r="1.78" fill="hsl(282, 85%, 55%)" />
    <circle cx="63.934" cy="74.134" r="1.78" fill="hsl(60, 85%, 55%)" />
    <circle cx="23.344" cy="41.595" r="1.79" fill="hsl(197, 85%, 55%)" />
    <circle cx="75.406" cy="38.153" r="1.79" fill="hsl(335, 85%, 55%)" />
    <circle cx="39.241" cy="75.975" r="1.79" fill="hsl(112, 85%, 55%)" />
    <circle cx="40.356" cy="23.504" r="1.79" fill="hsl(250, 85%, 55%)" />
    <circle cx="75.084" cy="63.058" r="1.79" fill="hsl(27, 85%, 55%)" />
    <circle cx="22.606" cy="57.340" r="1.79" fill="hsl(165, 85%, 55%)" />
    <circle cx="65.282" cy="26.012" r="1.80" fill="hsl(302, 85%, 55%)" />
    <circle cx="54.953" cy="78.090" r="1.80" fill="hsl(80, 85%, 55%)" />
    <circle cx="27.307" cy="32.587" r="1.80" fill="hsl(217, 85%, 55%)" />
    <circle cx="78.575" cy="47.500" r="1.80" fill="hsl(355, 85%, 55%)" />
    <circle cx="30.567" cy="71.208" r="1.80" fill="hsl(132, 85%, 55%)" />
    <circle cx="50.000" cy="21.155" r="1.80" fill="hsl(270, 85%, 55%)" />
    <circle cx="69.542" cy="71.326" r="1.81" fill="hsl(47, 85%, 55%)" />
    <circle cx="21.105" cy="47.472" r="1.81" fill="hsl(185, 85%, 55%)" />
    <circle cx="73.074" cy="32.294" r="1.81" fill="hsl(322, 85%, 55%)" />
    <circle cx="44.936" cy="78.721" r="1.81" fill="hsl(100, 85%, 55%)" />
    <circle cx="34.288" cy="25.337" r="1.81" fill="hsl(237, 85%, 55%)" />
    <circle cx="78.323" cy="57.589" r="1.81" fill="hsl(15, 85%, 55%)" />
    <circle cx="23.921" cy="63.576" r="1.82" fill="hsl(152, 85%, 55%)" />
    <circle cx="60.083" cy="22.299" r="1.82" fill="hsl(290, 85%, 55%)" />
    <circle cx="61.311" cy="77.308" r="1.82" fill="hsl(67, 85%, 55%)" />
    <circle cx="23.141" cy="37.475" r="1.82" fill="hsl(205, 85%, 55%)" />
    <circle cx="78.338" cy="41.065" r="1.82" fill="hsl(342, 85%, 55%)" />
    <circle cx="35.104" cy="75.800" r="1.82" fill="hsl(120, 85%, 55%)" />
    <circle cx="43.535" cy="20.839" r="1.83" fill="hsl(257, 85%, 55%)" />
    <circle cx="74.530" cy="67.176" r="1.83" fill="hsl(35, 85%, 55%)" />
    <circle cx="20.234" cy="53.919" r="1.83" fill="hsl(172, 85%, 55%)" />
    <circle cx="69.348" cy="26.942" r="1.83" fill="hsl(310, 85%, 55%)" />
    <circle cx="51.316" cy="80.148" r="1.83" fill="hsl(87, 85%, 55%)" />
    <circle cx="28.608" cy="28.608" r="1.83" fill="hsl(225, 85%, 55%)" />
    <circle cx="80.301" cy="51.323" r="1.83" fill="hsl(2, 85%, 55%)" />
    <circle cx="26.708" cy="69.544" r="1.84" fill="hsl(140, 85%, 55%)" />
    <circle cx="53.979" cy="19.779" r="1.84" fill="hsl(277, 85%, 55%)" />
    <circle cx="67.527" cy="75.031" r="1.84" fill="hsl(55, 85%, 55%)" />
    <circle cx="20.093" cy="43.370" r="1.84" fill="hsl(192, 85%, 55%)" />
    <circle cx="76.594" cy="34.646" r="1.84" fill="hsl(330, 85%, 55%)" />
    <circle cx="40.743" cy="79.359" r="1.84" fill="hsl(107, 85%, 55%)" />
    <circle cx="36.959" cy="22.033" r="1.85" fill="hsl(245, 85%, 55%)" />
    <circle cx="78.578" cy="61.838" r="1.85" fill="hsl(22, 85%, 55%)" />
    <circle cx="20.862" cy="60.605" r="1.85" fill="hsl(160, 85%, 55%)" />
    <circle cx="64.352" cy="22.430" r="1.85" fill="hsl(297, 85%, 55%)" />
    <circle cx="58.064" cy="80.095" r="1.85" fill="hsl(75, 85%, 55%)" />
    <circle cx="23.660" cy="33.220" r="1.85" fill="hsl(212, 85%, 55%)" />
    <circle cx="80.829" cy="44.564" r="1.86" fill="hsl(350, 85%, 55%)" />
    <circle cx="30.898" cy="74.894" r="1.86" fill="hsl(127, 85%, 55%)" />
    <circle cx="47.259" cy="18.668" r="1.86" fill="hsl(265, 85%, 55%)" />
    <circle cx="73.243" cy="71.298" r="1.86" fill="hsl(42, 85%, 55%)" />
    <circle cx="18.402" cy="50.000" r="1.86" fill="hsl(180, 85%, 55%)" />
    <circle cx="73.351" cy="28.603" r="1.86" fill="hsl(317, 85%, 55%)" />
    <circle cx="47.233" cy="81.624" r="1.86" fill="hsl(95, 85%, 55%)" />
    <circle cx="30.631" cy="24.758" r="1.87" fill="hsl(232, 85%, 55%)" />
    <circle cx="81.405" cy="55.538" r="1.87" fill="hsl(10, 85%, 55%)" />
    <circle cx="23.043" cy="67.173" r="1.87" fill="hsl(147, 85%, 55%)" />
    <circle cx="58.291" cy="19.057" r="1.87" fill="hsl(285, 85%, 55%)" />
    <circle cx="64.825" cy="78.479" r="1.87" fill="hsl(62, 85%, 55%)" />
    <circle cx="19.762" cy="38.994" r="1.87" fill="hsl(200, 85%, 55%)" />
    <circle cx="79.795" cy="37.658" r="1.88" fill="hsl(337, 85%, 55%)" />
    <circle cx="36.340" cy="79.293" r="1.88" fill="hsl(115, 85%, 55%)" />
    <circle cx="40.259" cy="19.106" r="1.88" fill="hsl(252, 85%, 55%)" />
    <circle cx="78.115" cy="66.232" r="1.88" fill="hsl(30, 85%, 55%)" />
    <circle cx="18.236" cy="57.042" r="1.88" fill="hsl(167, 85%, 55%)" />
    <circle cx="68.702" cy="23.290" r="1.88" fill="hsl(305, 85%, 55%)" />
    <circle cx="54.265" cy="82.398" r="1.88" fill="hsl(82, 85%, 55%)" />
    <circle cx="24.914" cy="28.950" r="1.89" fill="hsl(220, 85%, 55%)" />
    <circle cx="82.787" cy="48.568" r="1.89" fill="hsl(357, 85%, 55%)" />
    <circle cx="26.744" cy="73.256" r="1.89" fill="hsl(135, 85%, 55%)" />
    <circle cx="51.438" cy="17.072" r="1.89" fill="hsl(272, 85%, 55%)" />
    <circle cx="71.231" cy="75.302" r="1.89" fill="hsl(50, 85%, 55%)" />
    <circle cx="17.184" cy="45.680" r="1.89" fill="hsl(187, 85%, 55%)" />
    <circle cx="77.170" cy="30.975" r="1.89" fill="hsl(325, 85%, 55%)" />
    <circle cx="42.806" cy="82.450" r="1.90" fill="hsl(102, 85%, 55%)" />
    <circle cx="33.346" cy="21.155" r="1.90" fill="hsl(240, 85%, 55%)" />
    <circle cx="81.832" cy="60.037" r="1.90" fill="hsl(17, 85%, 55%)" />
    <circle cx="19.687" cy="64.135" r="1.90" fill="hsl(155, 85%, 55%)" />
    <circle cx="62.826" cy="19.036" r="1.90" fill="hsl(292, 85%, 55%)" />
    <circle cx="61.486" cy="81.559" r="1.90" fill="hsl(70, 85%, 55%)" />
    <circle cx="20.150" cy="34.461" r="1.90" fill="hsl(207, 85%, 55%)" />
    <circle cx="82.572" cy="41.272" r="1.91" fill="hsl(345, 85%, 55%)" />
    <circle cx="31.845" cy="78.498" r="1.91" fill="hsl(122, 85%, 55%)" />
    <circle cx="44.121" cy="16.656" r="1.91" fill="hsl(260, 85%, 55%)" />
    <circle cx="76.916" cy="70.653" r="1.91" fill="hsl(37, 85%, 55%)" />
    <circle cx="16.135" cy="52.963" r="1.91" fill="hsl(175, 85%, 55%)" />
    <circle cx="73.012" cy="24.887" r="1.91" fill="hsl(312, 85%, 55%)" />
    <circle cx="50.000" cy="84.130" r="1.91" fill="hsl(90, 85%, 55%)" />
    <circle cx="26.896" cy="24.787" r="1.92" fill="hsl(227, 85%, 55%)" />
    <circle cx="84.135" cy="52.986" r="1.92" fill="hsl(5, 85%, 55%)" />
    <circle cx="22.762" cy="70.900" r="1.92" fill="hsl(142, 85%, 55%)" />
    <circle cx="55.973" cy="16.123" r="1.92" fill="hsl(280, 85%, 55%)" />
    <circle cx="68.519" cy="79.069" r="1.92" fill="hsl(57, 85%, 55%)" />
    <circle cx="16.643" cy="41.062" r="1.92" fill="hsl(195, 85%, 55%)" />
    <circle cx="80.691" cy="34.023" r="1.92" fill="hsl(332, 85%, 55%)" />
    <circle cx="38.143" cy="82.577" r="1.93" fill="hsl(110, 85%, 55%)" />
    <circle cx="36.708" cy="17.910" r="1.93" fill="hsl(247, 85%, 55%)" />
    <circle cx="81.540" cy="64.707" r="1.93" fill="hsl(25, 85%, 55%)" />
    <circle cx="16.747" cy="60.485" r="1.93" fill="hsl(162, 85%, 55%)" />
    <circle cx="67.467" cy="19.747" r="1.93" fill="hsl(300, 85%, 55%)" />
    <circle cx="57.575" cy="84.170" r="1.93" fill="hsl(77, 85%, 55%)" />
    <circle cx="21.276" cy="29.887" r="1.93" fill="hsl(215, 85%, 55%)" />
    <circle cx="84.831" cy="45.414" r="1.94" fill="hsl(352, 85%, 55%)" />
    <circle cx="27.376" cy="76.962" r="1.94" fill="hsl(130, 85%, 55%)" />
    <circle cx="48.462" cy="14.771" r="1.94" fill="hsl(267, 85%, 55%)" />
    <circle cx="74.981" cy="74.981" r="1.94" fill="hsl(45, 85%, 55%)" />
    <circle cx="14.640" cy="48.456" r="1.94" fill="hsl(182, 85%, 55%)" />
    <circle cx="77.163" cy="27.208" r="1.94" fill="hsl(320, 85%, 55%)" />
    <circle cx="45.363" cy="85.220" r="1.94" fill="hsl(97, 85%, 55%)" />
    <circle cx="29.587" cy="20.847" r="1.94" fill="hsl(235, 85%, 55%)" />
    <circle cx="84.809" cy="57.717" r="1.95" fill="hsl(12, 85%, 55%)" />
    <circle cx="19.067" cy="67.859" r="1.95" fill="hsl(150, 85%, 55%)" />
    <circle cx="60.760" cy="15.873" r="1.95" fill="hsl(287, 85%, 55%)" />
    <circle cx="65.150" cy="82.489" r="1.95" fill="hsl(65, 85%, 55%)" />
    <circle cx="16.822" cy="36.257" r="1.95" fill="hsl(202, 85%, 55%)" />
    <circle cx="83.807" cy="37.695" r="1.95" fill="hsl(340, 85%, 55%)" />
    <circle cx="33.358" cy="81.968" r="1.95" fill="hsl(117, 85%, 55%)" />
    <circle cx="40.655" cy="15.126" r="1.96" fill="hsl(255, 85%, 55%)" />
    <circle cx="80.504" cy="69.433" r="1.96" fill="hsl(32, 85%, 55%)" />
    <circle cx="14.318" cy="56.292" r="1.96" fill="hsl(170, 85%, 55%)" />
    <circle cx="72.096" cy="21.204" r="1.96" fill="hsl(307, 85%, 55%)" />
    <circle cx="53.169" cy="86.221" r="1.96" fill="hsl(85, 85%, 55%)" />
    <circle cx="23.146" cy="25.393" r="1.96" fill="hsl(222, 85%, 55%)" />
    <circle cx="86.487" cy="50.000" r="1.96" fill="hsl(0, 85%, 55%)" />
    <circle cx="23.053" cy="74.693" r="1.96" fill="hsl(137, 85%, 55%)" />
    <circle cx="53.191" cy="13.526" r="1.97" fill="hsl(275, 85%, 55%)" />
    <circle cx="72.327" cy="79.097" r="1.97" fill="hsl(52, 85%, 55%)" />
    <circle cx="13.819" cy="43.620" r="1.97" fill="hsl(190, 85%, 55%)" />
    <circle cx="81.039" cy="30.226" r="1.97" fill="hsl(327, 85%, 55%)" />
    <circle cx="40.459" cy="85.609" r="1.97" fill="hsl(105, 85%, 55%)" />
    <circle cx="32.949" cy="17.245" r="1.97" fill="hsl(242, 85%, 55%)" />
    <circle cx="84.759" cy="62.651" r="1.97" fill="hsl(20, 85%, 55%)" />
    <circle cx="15.768" cy="64.179" r="1.98" fill="hsl(157, 85%, 55%)" />
    <circle cx="65.685" cy="16.363" r="1.98" fill="hsl(295, 85%, 55%)" />
    <circle cx="61.179" cy="85.456" r="1.98" fill="hsl(72, 85%, 55%)" />
    <circle cx="17.750" cy="31.380" r="1.98" fill="hsl(210, 85%, 55%)" />
    <circle cx="86.417" cy="41.927" r="1.98" fill="hsl(347, 85%, 55%)" />
    <circle cx="28.569" cy="80.606" r="1.98" fill="hsl(125, 85%, 55%)" />
    <circle cx="45.115" cy="12.895" r="1.98" fill="hsl(262, 85%, 55%)" />
    <circle cx="78.716" cy="74.096" r="1.98" fill="hsl(40, 85%, 55%)" />
    <circle cx="12.488" cy="51.638" r="1.99" fill="hsl(177, 85%, 55%)" />
    <circle cx="76.594" cy="23.406" r="1.99" fill="hsl(315, 85%, 55%)" />
    <circle cx="48.357" cy="87.635" r="1.99" fill="hsl(92, 85%, 55%)" />
    <circle cx="25.746" cy="21.095" r="1.99" fill="hsl(230, 85%, 55%)" />
    <circle cx="87.470" cy="54.933" r="1.99" fill="hsl(7, 85%, 55%)" />
    <circle cx="18.991" cy="71.713" r="1.99" fill="hsl(145, 85%, 55%)" />
    <circle cx="58.206" cy="12.983" r="1.99" fill="hsl(282, 85%, 55%)" />
    <circle cx="68.988" cy="82.889" r="1.99" fill="hsl(60, 85%, 55%)" />
    <circle cx="13.723" cy="38.562" r="2.00" fill="hsl(197, 85%, 55%)" />
    <circle cx="84.529" cy="33.899" r="2.00" fill="hsl(335, 85%, 55%)" />
    <circle cx="35.397" cy="85.254" r="2.00" fill="hsl(112, 85%, 55%)" />
    <circle cx="36.928" cy="14.086" r="2.00" fill="hsl(250, 85%, 55%)" />
    <circle cx="83.954" cy="67.676" r="2.00" fill="hsl(27, 85%, 55%)" />
    <circle cx="12.966" cy="59.923" r="2.00" fill="hsl(165, 85%, 55%)" />
    <circle cx="70.632" cy="17.614" r="2.00" fill="hsl(302, 85%, 55%)" />
    <circle cx="56.679" cy="87.876" r="2.00" fill="hsl(80, 85%, 55%)" />
    <circle cx="19.440" cy="26.550" r="2.01" fill="hsl(217, 85%, 55%)" />
    <circle cx="88.434" cy="46.637" r="2.01" fill="hsl(355, 85%, 55%)" />
    <circle cx="23.895" cy="78.489" r="2.01" fill="hsl(132, 85%, 55%)" />
    <circle cx="50.000" cy="11.300" r="2.01" fill="hsl(270, 85%, 55%)" />
    <circle cx="76.186" cy="78.577" r="2.01" fill="hsl(47, 85%, 55%)" />
    <circle cx="11.328" cy="46.617" r="2.01" fill="hsl(185, 85%, 55%)" />
    <circle cx="80.845" cy="26.332" r="2.01" fill="hsl(322, 85%, 55%)" />
    <circle cx="43.238" cy="88.347" r="2.01" fill="hsl(100, 85%, 55%)" />
    <circle cx="29.047" cy="17.110" r="2.02" fill="hsl(237, 85%, 55%)" />
    <circle cx="87.726" cy="60.109" r="2.02" fill="hsl(15, 85%, 55%)" />
    <circle cx="15.304" cy="68.062" r="2.02" fill="hsl(152, 85%, 55%)" />
    <circle cx="63.399" cy="13.188" r="2.02" fill="hsl(290, 85%, 55%)" />
    <circle cx="65.014" cy="86.247" r="2.02" fill="hsl(67, 85%, 55%)" />
    <circle cx="14.389" cy="33.394" r="2.02" fill="hsl(205, 85%, 55%)" />
    <circle cx="87.530" cy="38.167" r="2.02" fill="hsl(342, 85%, 55%)" />
    <circle cx="30.295" cy="84.130" r="2.02" fill="hsl(120, 85%, 55%)" />
    <circle cx="41.457" cy="11.467" r="2.03" fill="hsl(257, 85%, 55%)" />
    <circle cx="82.379" cy="72.672" r="2.03" fill="hsl(35, 85%, 55%)" />
    <circle cx="10.753" cy="55.167" r="2.03" fill="hsl(172, 85%, 55%)" />
    <circle cx="75.483" cy="19.631" r="2.03" fill="hsl(310, 85%, 55%)" />
    <circle cx="51.732" cy="89.665" r="2.03" fill="hsl(87, 85%, 55%)" />
    <circle cx="21.885" cy="21.885" r="2.03" fill="hsl(225, 85%, 55%)" />
    <circle cx="89.781" cy="51.737" r="2.03" fill="hsl(2, 85%, 55%)" />
    <circle cx="19.453" cy="75.632" r="2.03" fill="hsl(140, 85%, 55%)" />
    <circle cx="55.212" cy="10.407" r="2.04" fill="hsl(277, 85%, 55%)" />
    <circle cx="72.939" cy="82.760" r="2.04" fill="hsl(55, 85%, 55%)" />
    <circle cx="10.899" cy="41.332" r="2.04" fill="hsl(192, 85%, 55%)" />
    <circle cx="84.734" cy="29.946" r="2.04" fill="hsl(330, 85%, 55%)" />
    <circle cx="37.922" cy="88.306" r="2.04" fill="hsl(107, 85%, 55%)" />
    <circle cx="33.001" cy="13.546" r="2.04" fill="hsl(245, 85%, 55%)" />
    <circle cx="87.214" cy="65.415" r="2.04" fill="hsl(22, 85%, 55%)" />
    <circle cx="12.095" cy="63.796" r="2.04" fill="hsl(160, 85%, 55%)" />
    <circle cx="68.652" cy="14.169" r="2.05" fill="hsl(297, 85%, 55%)" />
    <circle cx="60.470" cy="89.074" r="2.05" fill="hsl(75, 85%, 55%)" />
    <circle cx="15.835" cy="28.234" r="2.05" fill="hsl(212, 85%, 55%)" />
    <circle cx="89.950" cy="42.956" r="2.05" fill="hsl(350, 85%, 55%)" />
    <circle cx="25.270" cy="82.228" r="2.05" fill="hsl(127, 85%, 55%)" />
    <circle cx="46.455" cy="9.475" r="2.05" fill="hsl(265, 85%, 55%)" />
    <circle cx="80.034" cy="77.521" r="2.05" fill="hsl(42, 85%, 55%)" />
    <circle cx="9.207" cy="50.000" r="2.05" fill="hsl(180, 85%, 55%)" />
    <circle cx="80.118" cy="22.402" r="2.05" fill="hsl(317, 85%, 55%)" />
    <circle cx="46.435" cy="90.751" r="2.06" fill="hsl(95, 85%, 55%)" />
    <circle cx="25.063" cy="17.502" r="2.06" fill="hsl(232, 85%, 55%)" />
    <circle cx="90.396" cy="57.123" r="2.06" fill="hsl(10, 85%, 55%)" />
    <circle cx="15.357" cy="72.070" r="2.06" fill="hsl(147, 85%, 55%)" />
    <circle cx="60.646" cy="10.270" r="2.06" fill="hsl(285, 85%, 55%)" />
    <circle cx="69.019" cy="86.534" r="2.06" fill="hsl(62, 85%, 55%)" />
    <circle cx="11.243" cy="35.894" r="2.06" fill="hsl(200, 85%, 55%)" />
    <circle cx="88.156" cy="34.195" r="2.06" fill="hsl(337, 85%, 55%)" />
    <circle cx="32.522" cy="87.481" r="2.07" fill="hsl(115, 85%, 55%)" />
    <circle cx="37.547" cy="10.505" r="2.07" fill="hsl(252, 85%, 55%)" />
    <circle cx="85.912" cy="70.734" r="2.07" fill="hsl(30, 85%, 55%)" />
    <circle cx="9.461" cy="58.987" r="2.07" fill="hsl(167, 85%, 55%)" />
    <circle cx="73.849" cy="15.940" r="2.07" fill="hsl(305, 85%, 55%)" />
    <circle cx="55.434" cy="91.278" r="2.07" fill="hsl(82, 85%, 55%)" />
    <circle cx="18.064" cy="23.202" r="2.07" fill="hsl(220, 85%, 55%)" />
    <circle cx="91.706" cy="48.179" r="2.07" fill="hsl(357, 85%, 55%)" />
    <circle cx="20.442" cy="79.558" r="2.07" fill="hsl(135, 85%, 55%)" />
    <circle cx="51.826" cy="8.184" r="2.08" fill="hsl(272, 85%, 55%)" />
    <circle cx="76.940" cy="82.106" r="2.08" fill="hsl(50, 85%, 55%)" />
    <circle cx="8.393" cy="44.522" r="2.08" fill="hsl(187, 85%, 55%)" />
    <circle cx="84.422" cy="25.898" r="2.08" fill="hsl(325, 85%, 55%)" />
    <circle cx="40.893" cy="91.079" r="2.08" fill="hsl(102, 85%, 55%)" />
    <circle cx="28.934" cy="13.513" r="2.08" fill="hsl(240, 85%, 55%)" />
    <circle cx="90.234" cy="62.686" r="2.08" fill="hsl(17, 85%, 55%)" />
    <circle cx="11.717" cy="67.852" r="2.08" fill="hsl(155, 85%, 55%)" />
    <circle cx="66.186" cy="10.924" r="2.09" fill="hsl(292, 85%, 55%)" />
    <circle cx="64.485" cy="89.796" r="2.09" fill="hsl(70, 85%, 55%)" />
    <circle cx="12.387" cy="30.420" r="2.09" fill="hsl(207, 85%, 55%)" />
    <circle cx="91.012" cy="39.011" r="2.09" fill="hsl(345, 85%, 55%)" />
    <circle cx="27.158" cy="85.856" r="2.09" fill="hsl(122, 85%, 55%)" />
    <circle cx="42.608" cy="8.079" r="2.09" fill="hsl(260, 85%, 55%)" />
    <circle cx="83.814" cy="75.947" r="2.09" fill="hsl(37, 85%, 55%)" />
    <circle cx="7.486" cy="53.719" r="2.09" fill="hsl(175, 85%, 55%)" />
    <circle cx="78.868" cy="18.496" r="2.09" fill="hsl(312, 85%, 55%)" />
    <circle cx="50.000" cy="92.784" r="2.10" fill="hsl(90, 85%, 55%)" />
    <circle cx="21.059" cy="18.416" r="2.10" fill="hsl(227, 85%, 55%)" />
    <circle cx="92.729" cy="53.738" r="2.10" fill="hsl(5, 85%, 55%)" />
    <circle cx="15.928" cy="76.144" r="2.10" fill="hsl(142, 85%, 55%)" />
    <circle cx="57.467" cy="7.653" r="2.10" fill="hsl(280, 85%, 55%)" />
  </g>
</svg>
